<svg xmlns="http://www.w3.org/2000/svg" version="1.1" xmlns:xlink="http://www.w3.org/1999/xlink" xmlns:svgjs="http://svgjs.dev/svgjs" width="128" height="128" viewBox="0 0 128 128"><g transform="matrix(0.8046875,0,0,0.8046875,12.333870967741937,12.333870967741937)"><svg viewBox="0 0 155 155" data-background-color="#ffffff" preserveAspectRatio="xMidYMid meet" height="128" width="128" xmlns="http://www.w3.org/2000/svg" xmlns:xlink="http://www.w3.org/1999/xlink"><g id="tight-bounds" transform="matrix(1,0,0,1,0.25,0.25)"><svg viewBox="0 0 154.5 154.5" height="154.5" width="154.5"><g><svg></svg></g><g><svg viewBox="0 0 154.5 154.5" height="154.5" width="154.5"><g transform="matrix(1,0,0,1,59.93524399090909,56.5974597)"><svg viewBox="0 0 34.62951201818181 41.3050806" height="41.3050806" width="34.62951201818181"><g><svg viewBox="0 0 34.62951201818181 41.3050806" height="41.3050806" width="34.62951201818181"><g><svg viewBox="0 0 34.62951201818181 41.3050806" height="41.3050806" width="34.62951201818181"><g id="textblocktransform"><svg viewBox="0 0 34.62951201818181 41.3050806" height="41.3050806" width="34.62951201818181" id="textblock"><g><svg viewBox="0 0 34.62951201818181 41.3050806" height="41.3050806" width="34.62951201818181"><g><svg viewBox="0 0 34.62951201818181 41.3050806" height="41.3050806" width="34.62951201818181"><g><svg xmlns="http://www.w3.org/2000/svg" xmlns:xlink="http://www.w3.org/1999/xlink" version="1.1" x="0" y="0" viewBox="90 58 332 396" enable-background="new 0 0 512 512" xml:space="preserve" height="41.3050806" width="34.62951201818181" class="icon-icon-0" data-fill-palette-color="accent" id="icon-0"><g fill="#50a060" data-fill-palette-color="accent"><g fill="#50a060" data-fill-palette-color="accent"><polygon points="186.634,189.317 153.292,256 186.634,322.683 197.366,317.317 166.708,256 197.366,194.683   " fill="#50a060" data-fill-palette-color="accent"></polygon><polygon points="314.634,194.683 345.292,256 314.634,317.317 325.366,322.683 358.708,256 325.366,189.317   " fill="#50a060" data-fill-palette-color="accent"></polygon><rect x="250" y="158.676" transform="matrix(-0.9864 -0.1644 0.1644 -0.9864 466.4307 550.603)" width="11.999" height="194.648" fill="#50a060" data-fill-palette-color="accent"></rect><path d="M354.485 58H90v396h332V125.515L354.485 58zM358 78.485L401.515 122H358V78.485zM102 442V70h244v64h64v308H102z" fill="#50a060" data-fill-palette-color="accent"></path></g></g></svg></g></svg></g></svg></g></svg></g></svg></g></svg></g></svg></g><g><path d="M0 154.5v-154.5h154.5v154.5zM150.775 150.775v-147.05h-147.05v147.05z" fill="#50a060" fill-rule="nonzero" stroke="none" stroke-width="1" stroke-linecap="butt" stroke-linejoin="miter" stroke-miterlimit="10" stroke-dasharray="" stroke-dashoffset="0" font-family="none" font-weight="none" font-size="none" text-anchor="none" style="mix-blend-mode: normal" data-fill-palette-color="tertiary"></path></g></svg></g><defs></defs></svg><rect width="154.5" height="154.5" fill="none" stroke="none" visibility="hidden"></rect></g></svg></g></svg>