<svg xmlns="http://www.w3.org/2000/svg" version="1.1" xmlns:xlink="http://www.w3.org/1999/xlink" xmlns:svgjs="http://svgjs.dev/svgjs" width="128" height="128" viewBox="0 0 128 128"><g transform="matrix(0.5478723404255319,0,0,0.5478723404255319,28.80499519534134,12.333870967741944)"><svg viewBox="0 0 105 155" data-background-color="#ffffff" preserveAspectRatio="xMidYMid meet" height="188" width="128" xmlns="http://www.w3.org/2000/svg" xmlns:xlink="http://www.w3.org/1999/xlink"><g id="tight-bounds" transform="matrix(1,0,0,1,0.19640434192672274,0.2499999999999858)"><svg viewBox="0 0 104.60719131614654 154.5" height="154.5" width="104.60719131614654"><g><svg viewBox="0 0 104.60719131614654 154.5" height="154.5" width="104.60719131614654"><g><svg viewBox="0 0 104.60719131614654 154.5" height="154.5" width="104.60719131614654"><g id="textblocktransform"><svg viewBox="0 0 104.60719131614654 154.5" height="154.5" width="104.60719131614654" id="textblock"><g><svg viewBox="0 0 104.60719131614654 154.5" height="154.5" width="104.60719131614654"><g transform="matrix(1,0,0,1,0,0)"><svg width="104.60719131614654" viewBox="0.95 -36.55 24.95 36.849999999999994" height="154.5" data-palette-color="#8abe53"><g class="wordmark-text-0" data-fill-palette-color="primary" id="text-0"><path d="M13.45 0.3L13.45 0.3Q12.8 0.3 12.23 0 11.65-0.3 11.5-0.9L11.5-0.9 1-34.8Q0.95-34.95 0.95-35.15L0.95-35.15Q0.95-35.6 1.25-35.9 1.55-36.2 2-36.38 2.45-36.55 2.9-36.55L2.9-36.55Q3.35-36.55 3.7-36.35 4.05-36.15 4.2-35.7L4.2-35.7 13.45-5 22.65-35.7Q22.8-36.15 23.13-36.35 23.45-36.55 23.9-36.55L23.9-36.55Q24.35-36.55 24.8-36.35 25.25-36.15 25.58-35.85 25.9-35.55 25.9-35.1L25.9-35.1Q25.9-35.05 25.88-34.98 25.85-34.9 25.8-34.8L25.8-34.8 15.45-0.9Q15.25-0.3 14.68 0 14.1 0.3 13.45 0.3Z" fill="#8abe53" data-fill-palette-color="primary"></path></g></svg></g></svg></g></svg></g></svg></g></svg></g><defs></defs></svg><rect width="104.60719131614654" height="154.5" fill="none" stroke="none" visibility="hidden"></rect></g></svg></g></svg>