<svg xmlns="http://www.w3.org/2000/svg" version="1.1" xmlns:xlink="http://www.w3.org/1999/xlink" xmlns:svgjs="http://svgjs.dev/svgjs" width="2000" height="2958" viewBox="0 0 2000 2958"><g transform="matrix(1,0,0,1,2.224633430229801,1.197632141989061)"><svg viewBox="0 0 167 247" data-background-color="#ffffff" preserveAspectRatio="xMidYMid meet" height="2958" width="2000" xmlns="http://www.w3.org/2000/svg" xmlns:xlink="http://www.w3.org/1999/xlink"><g id="tight-bounds" transform="matrix(1,0,0,1,-0.18575657154860892,-0.09999999999999432)"><svg viewBox="0 0 167.37150610583447 247.2" height="247.2" width="167.37150610583447"><g><svg viewBox="0 0 167.37150610583447 247.2" height="247.2" width="167.37150610583447"><g><svg viewBox="0 0 167.37150610583447 247.2" height="247.2" width="167.37150610583447"><g id="textblocktransform"><svg viewBox="0 0 167.37150610583447 247.2" height="247.2" width="167.37150610583447" id="textblock"><g><svg viewBox="0 0 167.37150610583447 247.2" height="247.2" width="167.37150610583447"><g transform="matrix(1,0,0,1,0,0)"><svg width="167.37150610583447" viewBox="0.9500000476837158 -36.54999923706055 24.94999885559082 36.849998474121094" height="247.2" data-palette-color="#8abe53"><g class="wordmark-text-0" data-fill-palette-color="primary" id="text-0"><path d="M13.45 0.3L13.45 0.3Q12.8 0.3 12.23 0 11.65-0.3 11.5-0.9L11.5-0.9 1-34.8Q0.95-34.95 0.95-35.15L0.95-35.15Q0.95-35.6 1.25-35.9 1.55-36.2 2-36.38 2.45-36.55 2.9-36.55L2.9-36.55Q3.35-36.55 3.7-36.35 4.05-36.15 4.2-35.7L4.2-35.7 13.45-5 22.65-35.7Q22.8-36.15 23.13-36.35 23.45-36.55 23.9-36.55L23.9-36.55Q24.35-36.55 24.8-36.35 25.25-36.15 25.58-35.85 25.9-35.55 25.9-35.1L25.9-35.1Q25.9-35.05 25.88-34.98 25.85-34.9 25.8-34.8L25.8-34.8 15.45-0.9Q15.25-0.3 14.68 0 14.1 0.3 13.45 0.3Z" fill="#8abe53" data-fill-palette-color="primary"></path></g></svg></g></svg></g></svg></g></svg></g></svg></g><defs></defs></svg><rect width="167.37150610583447" height="247.2" fill="none" stroke="none" visibility="hidden"></rect></g></svg></g></svg>