<svg xmlns="http://www.w3.org/2000/svg" version="1.1" xmlns:xlink="http://www.w3.org/1999/xlink" xmlns:svgjs="http://svgjs.dev/svgjs" width="2000" height="1247" viewBox="0 0 2000 1247"><g transform="matrix(1,0,0,1,-1.2121212121212466,0.504858299595071)"><svg viewBox="0 0 396 247" data-background-color="#ffffff" preserveAspectRatio="xMidYMid meet" height="1247" width="2000" xmlns="http://www.w3.org/2000/svg" xmlns:xlink="http://www.w3.org/1999/xlink"><g id="tight-bounds" transform="matrix(1,0,0,1,0.2400000000000091,-0.09999999999999432)"><svg viewBox="0 0 395.52 247.2" height="247.2" width="395.52"><g><svg></svg></g><g><svg viewBox="0 0 395.52 247.2" height="247.2" width="395.52"><g transform="matrix(1,0,0,1,46.13741872982553,37.08)"><svg viewBox="0 0 303.24516254034893 173.04" height="173.04" width="303.24516254034893"><g><svg viewBox="0 0 303.24516254034893 173.04" height="173.04" width="303.24516254034893"><g><svg viewBox="0 0 162.1721702721563 173.04" height="173.04" width="162.1721702721563"><g id="textblocktransform"><svg viewBox="0 0 162.1721702721563 173.04" height="173.04" width="162.1721702721563" id="textblock"><g><svg viewBox="0 0 162.1721702721563 173.04" height="173.04" width="162.1721702721563"><g transform="matrix(1,0,0,1,0,0)"><svg width="162.1721702721563" viewBox="0.20000000298023224 -35.83000183105469 33.56999969482422 35.83000183105469" height="173.04" data-palette-color="#50a060"><path d="M14.8 0L0.2-35.83 4.08-35.83Q4.73-35.83 5.13-35.5 5.53-35.18 5.73-34.68L5.73-34.68 15.85-9.4Q16.2-8.55 16.49-7.55 16.78-6.55 17.05-5.48L17.05-5.48Q17.28-6.55 17.54-7.55 17.8-8.55 18.15-9.4L18.15-9.4 28.23-34.68Q28.4-35.1 28.83-35.46 29.25-35.83 29.88-35.83L29.88-35.83 33.77-35.83 19.18 0 14.8 0Z" opacity="1" transform="matrix(1,0,0,1,0,0)" fill="#50a060" class="undefined-text-0" data-fill-palette-color="primary" id="text-0"></path></svg></g></svg></g></svg></g></svg></g><g transform="matrix(1,0,0,1,203.02276131215632,26.748808906077905)"><svg viewBox="0 0 100.2224012281926 119.54238218784418" height="119.54238218784418" width="100.2224012281926"><g><svg xmlns="http://www.w3.org/2000/svg" xmlns:xlink="http://www.w3.org/1999/xlink" version="1.1" x="0" y="0" viewBox="90 58 332 396" enable-background="new 0 0 512 512" xml:space="preserve" height="119.54238218784418" width="100.2224012281926" class="icon-icon-0" data-fill-palette-color="accent" id="icon-0"><g fill="#50a060" data-fill-palette-color="accent"><g fill="#50a060" data-fill-palette-color="accent"><polygon points="186.634,189.317 153.292,256 186.634,322.683 197.366,317.317 166.708,256 197.366,194.683   " fill="#50a060" data-fill-palette-color="accent"></polygon><polygon points="314.634,194.683 345.292,256 314.634,317.317 325.366,322.683 358.708,256 325.366,189.317   " fill="#50a060" data-fill-palette-color="accent"></polygon><rect x="250" y="158.676" transform="matrix(-0.9864 -0.1644 0.1644 -0.9864 466.4307 550.603)" width="11.999" height="194.648" fill="#50a060" data-fill-palette-color="accent"></rect><path d="M354.485 58H90v396h332V125.515L354.485 58zM358 78.485L401.515 122H358V78.485zM102 442V70h244v64h64v308H102z" fill="#50a060" data-fill-palette-color="accent"></path></g></g></svg></g></svg></g></svg></g></svg></g><g></g></svg></g><defs></defs></svg><rect width="395.52" height="247.2" fill="none" stroke="none" visibility="hidden"></rect></g></svg></g></svg>